<svg width="58" height="58" viewBox="0 0 58 58" fill="none" xmlns="http://www.w3.org/2000/svg">
<g filter="url(#filter0_d_377_334)">
<path d="M54 25C54 38.8071 42.8071 50 29 50C15.1929 50 4 38.8071 4 25C4 11.1929 15.1929 0 29 0C42.8071 0 54 11.1929 54 25Z" fill="url(#paint0_linear_377_334)"/>
<path d="M25 32.5V49.5C25 49.7761 25.2239 50 25.5 50H32.5C32.7761 50 33 49.7761 33 49.5V32.5C33 32.2239 33.2239 32 33.5 32H38.5C38.7761 32 39 31.7761 39 31.5V25.5C39 25.2239 38.7761 25 38.5 25H33.5C33.2239 25 33 24.7765 33 24.5003V20C33 18 35.5 17 36.5 17H39.5C39.7761 17 40 16.7761 40 16.5V10.5C40 10.2239 39.7762 10 39.5001 10H33C28.2 10 25 15 25 18V24.5C25 24.7761 24.7761 25 24.5 25H19.5C19.2239 25 19 25.2239 19 25.5V31.5C19 31.7761 19.2239 32 19.5 32H24.5C24.7761 32 25 32.2239 25 32.5Z" fill="white"/>
</g>
<defs>
<filter id="filter0_d_377_334" x="0" y="0" width="58" height="58" filterUnits="userSpaceOnUse" color-interpolation-filters="sRGB">
<feFlood flood-opacity="0" result="BackgroundImageFix"/>
<feColorMatrix in="SourceAlpha" type="matrix" values="0 0 0 0 0 0 0 0 0 0 0 0 0 0 0 0 0 0 127 0" result="hardAlpha"/>
<feOffset dy="4"/>
<feGaussianBlur stdDeviation="2"/>
<feComposite in2="hardAlpha" operator="out"/>
<feColorMatrix type="matrix" values="0 0 0 0 0 0 0 0 0 0 0 0 0 0 0 0 0 0 0.25 0"/>
<feBlend mode="normal" in2="BackgroundImageFix" result="effect1_dropShadow_377_334"/>
<feBlend mode="normal" in="SourceGraphic" in2="effect1_dropShadow_377_334" result="shape"/>
</filter>
<linearGradient id="paint0_linear_377_334" x1="29" y1="0" x2="29" y2="50" gradientUnits="userSpaceOnUse">
<stop/>
<stop offset="1"/>
</linearGradient>
</defs>
</svg>
